<svg xmlns="http://www.w3.org/2000/svg" viewBox="0 0 44 44"><defs><style>.cls-1{fill:#0b80e0;}</style></defs><title>Asset 4</title><g id="Layer_2" data-name="Layer 2"><g id="Electronics"><g id="Desktop_Right_2x.png" data-name="Desktop Right@2x.png"><path class="cls-1" d="M40,0H4A4,4,0,0,0,0,4V34a4,4,0,0,0,4,4H18v4H15a1,1,0,0,0,0,2H29a1,1,0,0,0,0-2H26V38H40a4,4,0,0,0,4-4V4A4,4,0,0,0,40,0ZM24,42H20V38h4Zm18-8a2,2,0,0,1-2,2H4a2,2,0,0,1-2-2V32H42Zm0-4H2V4A2,2,0,0,1,4,2H40a2,2,0,0,1,2,2ZM29.71,15.29l-4-4a1,1,0,0,0-1.41,1.42L26.59,15H15a1,1,0,0,0,0,2H26.59l-2.29,2.29a1,1,0,1,0,1.41,1.41l4-4a1,1,0,0,0,0-1.41Z"/></g></g></g></svg>