<svg xmlns="http://www.w3.org/2000/svg" viewBox="0 0 44 44"><defs><style>.cls-1{fill:#0b80e0;}</style></defs><title>Asset 2</title><g id="Layer_2" data-name="Layer 2"><g id="Arrows"><g id="Right_Arrow_5_2x.png" data-name="Right Arrow 5@2x.png"><path class="cls-1" d="M29.73,21.33h0l-10-11h0A1,1,0,0,0,19,10a1,1,0,0,0-.73,1.67h0L27.65,22,18.26,32.33h0A1,1,0,0,0,18,33a1,1,0,0,0,1,1,1,1,0,0,0,.73-.33h0l10-11h0a1,1,0,0,0,0-1.33ZM40,0H4A4,4,0,0,0,0,4V40a4,4,0,0,0,4,4H40a4,4,0,0,0,4-4V4A4,4,0,0,0,40,0Zm2,40a2,2,0,0,1-2,2H4a2,2,0,0,1-2-2V4A2,2,0,0,1,4,2H40a2,2,0,0,1,2,2Z"/></g></g></g></svg>