<svg xmlns="http://www.w3.org/2000/svg" xmlns:xlink="http://www.w3.org/1999/xlink" width="1.27cm" height="1.27cm">
    <path fill-rule="evenodd"  fill="rgb(49, 98, 162)"
          d="M18.000,-0.000 C27.941,-0.000 36.000,8.059 36.000,18.000 C36.000,27.941 27.941,36.000 18.000,36.000 C8.059,36.000 -0.000,27.941 -0.000,18.000 C-0.000,8.059 8.059,-0.000 18.000,-0.000 Z"/>
    <path fill-rule="evenodd"  fill="rgb(255, 255, 255)"
          d="M18.990,24.994 L16.325,24.994 L16.325,17.997 L14.993,17.997 L14.993,15.585 L16.325,15.585 L16.325,14.137 C16.325,12.170 17.077,11.000 19.213,11.000 L20.992,11.000 L20.992,13.412 L19.881,13.412 C19.049,13.412 18.993,13.749 18.993,14.378 L18.990,15.585 L21.005,15.585 L20.769,17.997 L18.990,17.997 L18.990,24.994 Z"/>
</svg>