<svg xmlns="http://www.w3.org/2000/svg" viewBox="0 0 44 36"><defs><style>.cls-1{fill:#0b80e0;}</style></defs><title>Asset 5</title><g id="Layer_2" data-name="Layer 2"><g id="General"><g id="List_2_2x.png" data-name="List 2@2x.png"><path class="cls-1" d="M4,28a4,4,0,1,0,4,4A4,4,0,0,0,4,28Zm0,6a2,2,0,1,1,2-2A2,2,0,0,1,4,34ZM16,8H40a4,4,0,1,0,0-8H16a4,4,0,1,0,0,8Zm0-6H40a2,2,0,1,1,0,4H16a2,2,0,1,1,0-4ZM40,28H16a4,4,0,0,0,0,8H40a4,4,0,0,0,0-8Zm0,6H16a2,2,0,0,1,0-4H40a2,2,0,0,1,0,4Zm0-20H16a4,4,0,1,0,0,8H40a4,4,0,1,0,0-8Zm0,6H16a2,2,0,1,1,0-4H40a2,2,0,1,1,0,4ZM4,14a4,4,0,1,0,4,4A4,4,0,0,0,4,14Zm0,6a2,2,0,1,1,2-2A2,2,0,0,1,4,20ZM4,0A4,4,0,1,0,8,4,4,4,0,0,0,4,0ZM4,6A2,2,0,1,1,6,4,2,2,0,0,1,4,6Z"/></g></g></g></svg>